<?xml version="1.0" encoding="UTF-8"?>
<svg width="24" height="24" viewBox="0 0 24 24" xmlns="http://www.w3.org/2000/svg">
  <path fill="currentColor" d="M12 4c-4.97 0-9 4.03-9 9s4.03 9 9 9 9-4.03 9-9-4.03-9-9-9zm0 16c-3.86 0-7-3.14-7-7s3.14-7 7-7 7 3.14 7 7-3.14 7-7 7z"/>
  <circle cx="9" cy="12" r="1.5" fill="currentColor"/>
  <circle cx="15" cy="12" r="1.5" fill="currentColor"/>
  <path fill="currentColor" d="M12 15.5c1.1 0 2-.9 2-2h-4c0 1.1.9 2 2 2z"/>
  <circle cx="5" cy="5" r="1" fill="currentColor"/>
  <circle cx="19" cy="5" r="1" fill="currentColor"/>
</svg> 