<svg xmlns="http://www.w3.org/2000/svg" viewBox="0 0 800 500" fill="none">
  <defs>
    <linearGradient id="bg" x1="0" y1="0" x2="800" y2="500">
      <stop offset="0%" stop-color="#0f0f11"/>
      <stop offset="100%" stop-color="#18181b"/>
    </linearGradient>
  </defs>
  <rect width="800" height="500" rx="16" fill="url(#bg)"/>

  <!-- macOS Menubar -->
  <rect x="0" y="0" width="800" height="32" rx="16" fill="#1c1c1e"/>
  <rect x="0" y="16" width="800" height="16" fill="#1c1c1e"/>
  <circle cx="20" cy="16" r="5" fill="#ff5f57"/>
  <circle cx="38" cy="16" r="5" fill="#febc2e"/>
  <circle cx="56" cy="16" r="5" fill="#28c840"/>

  <!-- GitBar icon in menubar -->
  <rect x="680" y="8" width="16" height="16" rx="3" fill="#22c55e" opacity="0.8"/>
  <text x="684" y="21" font-family="monospace" font-size="10" fill="#0a0a0a" font-weight="bold">G</text>

  <!-- Dropdown Panel -->
  <rect x="520" y="40" width="260" height="420" rx="12" fill="#111113" stroke="#27272a" stroke-width="1"/>

  <!-- Panel Header -->
  <text x="540" y="68" font-family="system-ui, sans-serif" font-size="14" fill="#fafafa" font-weight="600">GitBar Dashboard</text>
  <circle cx="756" cy="62" r="4" fill="#22c55e"/>

  <!-- PR Section -->
  <text x="540" y="100" font-family="monospace" font-size="10" fill="#52525b" letter-spacing="1.5">PULL REQUESTS</text>
  <rect x="540" y="110" width="220" height="44" rx="8" fill="#18181b" stroke="#27272a" stroke-width="0.5"/>
  <circle cx="558" cy="132" r="8" fill="#22c55e" opacity="0.15"/>
  <text x="554" y="136" font-family="monospace" font-size="10" fill="#22c55e">✓</text>
  <text x="574" y="128" font-family="system-ui" font-size="11" fill="#a1a1aa">feat: add dark mode toggle</text>
  <text x="574" y="142" font-family="monospace" font-size="9" fill="#52525b">#142 · 2 hours ago</text>

  <rect x="540" y="160" width="220" height="44" rx="8" fill="#18181b" stroke="#27272a" stroke-width="0.5"/>
  <circle cx="558" cy="182" r="8" fill="#eab308" opacity="0.15"/>
  <text x="553" y="186" font-family="monospace" font-size="10" fill="#eab308">●</text>
  <text x="574" y="178" font-family="system-ui" font-size="11" fill="#a1a1aa">fix: resolve merge conflict</text>
  <text x="574" y="192" font-family="monospace" font-size="9" fill="#52525b">#139 · 5 hours ago</text>

  <!-- Issues Section -->
  <text x="540" y="228" font-family="monospace" font-size="10" fill="#52525b" letter-spacing="1.5">ISSUES</text>
  <rect x="540" y="238" width="220" height="44" rx="8" fill="#18181b" stroke="#27272a" stroke-width="0.5"/>
  <circle cx="558" cy="260" r="8" fill="#3b82f6" opacity="0.15"/>
  <text x="553" y="264" font-family="monospace" font-size="10" fill="#3b82f6">◆</text>
  <text x="574" y="256" font-family="system-ui" font-size="11" fill="#a1a1aa">Add GitLab CI/CD support</text>
  <text x="574" y="270" font-family="monospace" font-size="9" fill="#52525b">#87 · enhancement</text>

  <!-- CI/CD Section -->
  <text x="540" y="306" font-family="monospace" font-size="10" fill="#52525b" letter-spacing="1.5">CI/CD STATUS</text>
  <rect x="540" y="316" width="220" height="36" rx="8" fill="#18181b" stroke="#27272a" stroke-width="0.5"/>
  <circle cx="558" cy="334" r="5" fill="#22c55e"/>
  <text x="572" y="338" font-family="system-ui" font-size="11" fill="#a1a1aa">main</text>
  <text x="680" y="338" font-family="monospace" font-size="10" fill="#22c55e">passing</text>

  <rect x="540" y="358" width="220" height="36" rx="8" fill="#18181b" stroke="#27272a" stroke-width="0.5"/>
  <circle cx="558" cy="376" r="5" fill="#22c55e"/>
  <text x="572" y="380" font-family="system-ui" font-size="11" fill="#a1a1aa">develop</text>
  <text x="680" y="380" font-family="monospace" font-size="10" fill="#22c55e">passing</text>

  <!-- Repo Stats -->
  <text x="540" y="418" font-family="monospace" font-size="10" fill="#52525b" letter-spacing="1.5">REPOS</text>
  <rect x="540" y="428" width="68" height="24" rx="6" fill="#22c55e" opacity="0.1"/>
  <text x="554" y="444" font-family="monospace" font-size="10" fill="#22c55e">GitHub</text>
  <rect x="614" y="428" width="68" height="24" rx="6" fill="#e2622e" opacity="0.1"/>
  <text x="628" y="444" font-family="monospace" font-size="10" fill="#e2622e">GitLab</text>
  <rect x="688" y="428" width="72" height="24" rx="6" fill="#2684ff" opacity="0.1"/>
  <text x="696" y="444" font-family="monospace" font-size="10" fill="#2684ff">Bitbucket</text>

  <!-- Left side: Terminal/code view -->
  <rect x="30" y="60" width="460" height="400" rx="12" fill="#0a0a0a" stroke="#27272a" stroke-width="1"/>

  <!-- Terminal header -->
  <rect x="30" y="60" width="460" height="36" rx="12" fill="#1c1c1e"/>
  <rect x="30" y="84" width="460" height="12" fill="#1c1c1e"/>
  <text x="200" y="82" font-family="monospace" font-size="11" fill="#52525b" text-anchor="middle">~/projects/gitbar</text>

  <!-- Terminal content -->
  <text x="50" y="120" font-family="monospace" font-size="12" fill="#52525b">$</text>
  <text x="66" y="120" font-family="monospace" font-size="12" fill="#22c55e">pip install gitbar</text>

  <text x="50" y="148" font-family="monospace" font-size="11" fill="#a1a1aa">Collecting gitbar</text>
  <text x="50" y="166" font-family="monospace" font-size="11" fill="#a1a1aa">  Downloading gitbar-1.2.0.tar.gz</text>
  <text x="50" y="184" font-family="monospace" font-size="11" fill="#22c55e">Successfully installed gitbar-1.2.0</text>

  <text x="50" y="216" font-family="monospace" font-size="12" fill="#52525b">$</text>
  <text x="66" y="216" font-family="monospace" font-size="12" fill="#22c55e">gitbar start</text>

  <text x="50" y="244" font-family="monospace" font-size="11" fill="#a1a1aa">🟢 GitBar running in menubar</text>
  <text x="50" y="262" font-family="monospace" font-size="11" fill="#a1a1aa">   Connected: GitHub (3 repos)</text>
  <text x="50" y="280" font-family="monospace" font-size="11" fill="#a1a1aa">   Connected: GitLab (1 repo)</text>
  <text x="50" y="298" font-family="monospace" font-size="11" fill="#52525b">   Polling interval: 60s</text>

  <!-- Git stats visualization -->
  <text x="50" y="340" font-family="monospace" font-size="10" fill="#52525b" letter-spacing="1.5">CONTRIBUTION GRAPH</text>
  <!-- Mini contribution grid -->
  <g transform="translate(50, 350)">
    <rect x="0" y="0" width="8" height="8" rx="1" fill="#22c55e" opacity="0.2"/>
    <rect x="11" y="0" width="8" height="8" rx="1" fill="#22c55e" opacity="0.5"/>
    <rect x="22" y="0" width="8" height="8" rx="1" fill="#22c55e" opacity="0.8"/>
    <rect x="33" y="0" width="8" height="8" rx="1" fill="#22c55e" opacity="0.3"/>
    <rect x="44" y="0" width="8" height="8" rx="1" fill="#22c55e" opacity="0.9"/>
    <rect x="55" y="0" width="8" height="8" rx="1" fill="#22c55e" opacity="0.1"/>
    <rect x="66" y="0" width="8" height="8" rx="1" fill="#22c55e" opacity="0.6"/>
    <rect x="77" y="0" width="8" height="8" rx="1" fill="#22c55e" opacity="0.4"/>
    <rect x="88" y="0" width="8" height="8" rx="1" fill="#22c55e" opacity="0.7"/>
    <rect x="99" y="0" width="8" height="8" rx="1" fill="#22c55e" opacity="0.2"/>
    <rect x="110" y="0" width="8" height="8" rx="1" fill="#22c55e" opacity="0.5"/>
    <rect x="121" y="0" width="8" height="8" rx="1" fill="#22c55e" opacity="0.9"/>

    <rect x="0" y="11" width="8" height="8" rx="1" fill="#22c55e" opacity="0.6"/>
    <rect x="11" y="11" width="8" height="8" rx="1" fill="#22c55e" opacity="0.1"/>
    <rect x="22" y="11" width="8" height="8" rx="1" fill="#22c55e" opacity="0.4"/>
    <rect x="33" y="11" width="8" height="8" rx="1" fill="#22c55e" opacity="0.7"/>
    <rect x="44" y="11" width="8" height="8" rx="1" fill="#22c55e" opacity="0.2"/>
    <rect x="55" y="11" width="8" height="8" rx="1" fill="#22c55e" opacity="0.8"/>
    <rect x="66" y="11" width="8" height="8" rx="1" fill="#22c55e" opacity="0.3"/>
    <rect x="77" y="11" width="8" height="8" rx="1" fill="#22c55e" opacity="0.6"/>
    <rect x="88" y="11" width="8" height="8" rx="1" fill="#22c55e" opacity="0.1"/>
    <rect x="99" y="11" width="8" height="8" rx="1" fill="#22c55e" opacity="0.5"/>
    <rect x="110" y="11" width="8" height="8" rx="1" fill="#22c55e" opacity="0.7"/>
    <rect x="121" y="11" width="8" height="8" rx="1" fill="#22c55e" opacity="0.4"/>

    <rect x="0" y="22" width="8" height="8" rx="1" fill="#22c55e" opacity="0.3"/>
    <rect x="11" y="22" width="8" height="8" rx="1" fill="#22c55e" opacity="0.8"/>
    <rect x="22" y="22" width="8" height="8" rx="1" fill="#22c55e" opacity="0.1"/>
    <rect x="33" y="22" width="8" height="8" rx="1" fill="#22c55e" opacity="0.5"/>
    <rect x="44" y="22" width="8" height="8" rx="1" fill="#22c55e" opacity="0.6"/>
    <rect x="55" y="22" width="8" height="8" rx="1" fill="#22c55e" opacity="0.3"/>
    <rect x="66" y="22" width="8" height="8" rx="1" fill="#22c55e" opacity="0.9"/>
    <rect x="77" y="22" width="8" height="8" rx="1" fill="#22c55e" opacity="0.2"/>
    <rect x="88" y="22" width="8" height="8" rx="1" fill="#22c55e" opacity="0.8"/>
    <rect x="99" y="22" width="8" height="8" rx="1" fill="#22c55e" opacity="0.4"/>
    <rect x="110" y="22" width="8" height="8" rx="1" fill="#22c55e" opacity="0.1"/>
    <rect x="121" y="22" width="8" height="8" rx="1" fill="#22c55e" opacity="0.6"/>
  </g>

  <!-- Stats at bottom -->
  <text x="50" y="410" font-family="monospace" font-size="11" fill="#52525b">Open PRs:</text>
  <text x="130" y="410" font-family="monospace" font-size="11" fill="#22c55e">4</text>
  <text x="160" y="410" font-family="monospace" font-size="11" fill="#52525b">Issues:</text>
  <text x="220" y="410" font-family="monospace" font-size="11" fill="#eab308">7</text>
  <text x="250" y="410" font-family="monospace" font-size="11" fill="#52525b">CI:</text>
  <text x="276" y="410" font-family="monospace" font-size="11" fill="#22c55e">✓ all passing</text>

  <!-- PyPI badge -->
  <rect x="50" y="430" width="80" height="20" rx="4" fill="#22c55e" opacity="0.1"/>
  <text x="66" y="444" font-family="monospace" font-size="10" fill="#22c55e">PyPI v1.2.0</text>
</svg>
